<?xml version="1.0" encoding="utf-8"?>
<!-- Generator: Adobe Illustrator 15.0.2, SVG Export Plug-In . SVG Version: 6.00 Build 0)  -->
<svg version="1.2" baseProfile="tiny" id="Layer_1" xmlns="http://www.w3.org/2000/svg" xmlns:xlink="http://www.w3.org/1999/xlink"
	 x="0px" y="0px" width="50px" height="50px" viewBox="0 0 50 50" xml:space="preserve">
<g id="floor">
	<rect x="100" y="750" fill="#999999" width="100" height="100"/>
	<rect x="1450" y="900" fill="#999999" width="100" height="100"/>
	<rect x="600" y="750" fill="#999999" width="550" height="100"/>
</g>
<g id="metal">
	<rect x="500" y="600" width="100" height="250"/>
	<polygon points="600,150 600,250 0,250 0,350 0,850 100,850 100,350 600,350 600,300 750,300 750,150 	"/>
	<rect x="900" y="250" width="250" height="400"/>
	<rect x="1550" y="550" width="50" height="450"/>
	<polygon points="1400,550 1400,650 1350,650 1350,100 1300,100 1300,650 1400,700 1450,750 1450,700 1450,550 	"/>
</g>
<g id="wood">
	<rect x="1450" y="550" fill="#534741" width="100" height="50"/>
	<rect x="600" y="300" fill="#534741" width="150" height="50"/>
	<polygon fill="#534741" points="1050,200 900,250 1050,250 1150,250 	"/>
	<polygon fill="#534741" points="350,650 250,700 200,750 200,800 250,750 350,700 500,650 500,600 	"/>
	<polygon fill="#534741" points="350,450 200,450 350,500 250,550 200,600 200,650 250,600 350,550 500,500 	"/>
	<polygon fill="#534741" points="1400,700 1300,650 1300,700 1400,750 1450,800 1450,750 	"/>
	<polygon fill="#534741" points="1400,850 1300,800 1150,750 1150,800 1300,850 1400,900 1450,950 1450,900 	"/>
	<polygon fill="#534741" points="1200,50 1050,0 900,50 800,100 750,150 750,200 800,150 900,100 1050,50 1200,100 1300,150 
		1300,100 	"/>
</g>
</svg>
